<svg xmlns="http://www.w3.org/2000/svg" xmlns:xlink="http://www.w3.org/1999/xlink" width="710" height="460" viewBox="0 0 710 460">
  <defs>
    <clipPath id="clip-_01">
      <rect width="710" height="460"/>
    </clipPath>
  </defs>
  <g id="_01" data-name="01" clip-path="url(#clip-_01)">
    <g id="Img" transform="translate(-17.947 -43.011)">
      <g id="BACKGROUND">
        <g id="Group_11" data-name="Group 11">
          <g id="Group_3" data-name="Group 3">
            <g id="Group_2" data-name="Group 2">
              <path id="Path_1" data-name="Path 1" d="M597,241.756c-7.749-23-4.009-49.3-15.087-70.89-12.871-25.091-42.909-37.127-71.1-37.992s-55.764,7.21-83.525,12.169-57.743,6.508-82.826-6.38C319.194,125.677,302.3,99.736,276.659,87.5c-32.453-15.487-73.566-4.535-99.023,20.862s-36.66,62.523-36.783,98.482c-.087,25.19,4,53.157-11.321,73.153-9.305,12.144-23.982,18.606-36.773,27-33.712,22.122-55.946,60.827-58.074,101.092C32.928,441.308,44.9,474.907,66.662,500H677.8a143.408,143.408,0,0,0-8.505-173.251C645.165,297.98,608.99,277.34,597,241.756Z" fill="#f77c0c" opacity="0.1"/>
              <g id="Group_1" data-name="Group 1" opacity="0.65">
                <rect id="Rectangle_2" data-name="Rectangle 2" width="516.869" height="19.876" transform="translate(116.566 208.961)" fill="#cf690c"/>
                <rect id="Rectangle_3" data-name="Rectangle 3" width="516.869" height="19.875" transform="translate(116.566 460.249)" fill="#f4dedc"/>
                <rect id="Rectangle_4" data-name="Rectangle 4" width="561.523" height="19.875" transform="translate(94.238 480.125)" fill="#e5c9c7"/>
                <rect id="Rectangle_5" data-name="Rectangle 5" width="472.214" height="19.875" transform="translate(138.893 253.907)" fill="#cf690c"/>
                <rect id="Rectangle_6" data-name="Rectangle 6" width="439.258" height="25.07" transform="translate(155.371 228.836)" fill="#f77c0c" opacity="0.5"/>
                <path id="Path_2" data-name="Path 2" d="M375,106.611,165.246,208.961H584.753Z" fill="#f77c0c" opacity="0.5"/>
                <rect id="Rectangle_7" data-name="Rectangle 7" width="33.901" height="186.467" transform="translate(358.05 273.782)" fill="#f77c0c" opacity="0.5"/>
                <path id="Path_3" data-name="Path 3" d="M391.95,295.733h-33.9l-9.882-21.95h53.666Z" fill="#f77c0c"/>
                <rect id="Rectangle_8" data-name="Rectangle 8" width="33.901" height="186.467" transform="translate(165.253 273.782)" fill="#f77c0c" opacity="0.5"/>
                <path id="Path_4" data-name="Path 4" d="M199.154,295.733h-33.9l-9.882-21.95h53.666Z" fill="#f77c0c"/>
                <rect id="Rectangle_9" data-name="Rectangle 9" width="33.901" height="186.467" transform="translate(256.71 273.782)" fill="#f77c0c" opacity="0.5"/>
                <path id="Path_5" data-name="Path 5" d="M290.611,295.733h-33.9l-9.882-21.95h53.666Z" fill="#f77c0c"/>
                <rect id="Rectangle_10" data-name="Rectangle 10" width="33.901" height="186.467" transform="translate(584.747 460.249) rotate(180)" fill="#f77c0c" opacity="0.5"/>
                <path id="Path_6" data-name="Path 6" d="M550.846,295.733h33.9l9.883-21.95H540.963Z" fill="#f77c0c"/>
                <rect id="Rectangle_11" data-name="Rectangle 11" width="33.901" height="186.467" transform="translate(493.29 460.249) rotate(180)" fill="#f77c0c" opacity="0.5"/>
                <path id="Path_7" data-name="Path 7" d="M459.389,295.733h33.9l9.882-21.95H449.507Z" fill="#f77c0c"/>
                <circle id="Ellipse_1" data-name="Ellipse 1" cx="26.176" cy="26.176" r="26.176" transform="translate(348.824 137.676)" fill="#cf690c" opacity="0.5"/>
              </g>
            </g>
          </g>
          <g id="Group_10" data-name="Group 10">
            <g id="Group_8" data-name="Group 8">
              <g id="Group_4" data-name="Group 4">
                <path id="Path_8" data-name="Path 8" d="M594.629,376.464h0c0-17.361,0-17.361-17.36-17.361h0c17.36,0,17.36,0,17.36-17.36h0c0,17.36,0,17.36,17.36,17.36h0C594.629,359.1,594.629,359.1,594.629,376.464Z" fill="#f77c0c"/>
                <path id="Path_9" data-name="Path 9" d="M575.493,410.431h0c0-12.561,0-12.561-12.562-12.561h0c12.562,0,12.562,0,12.562-12.561h0c0,12.562,0,12.561,12.561,12.561h0C575.493,397.87,575.493,397.87,575.493,410.431Z" fill="#f77c0c"/>
              </g>
              <g id="Group_5" data-name="Group 5">
                <path id="Path_10" data-name="Path 10" d="M626.98,106.659h0c0-17.36,0-17.36-17.36-17.36h0c17.36,0,17.36,0,17.36-17.36h0c0,17.36,0,17.36,17.36,17.36h0C626.98,89.3,626.98,89.3,626.98,106.659Z" fill="#f77c0c"/>
                <path id="Path_11" data-name="Path 11" d="M594.023,93.511h0c0-12.561,0-12.561-12.561-12.561h0c12.561,0,12.561,0,12.561-12.562h0c0,12.562,0,12.562,12.562,12.562h0C594.023,80.95,594.023,80.95,594.023,93.511Z" fill="#f77c0c"/>
              </g>
              <g id="Group_6" data-name="Group 6">
                <path id="Path_12" data-name="Path 12" d="M79.624,168.136h0c0-17.36,0-17.36-17.361-17.36h0c17.361,0,17.361,0,17.361-17.36h0c0,17.36,0,17.36,17.36,17.36h0C79.624,150.776,79.624,150.776,79.624,168.136Z" fill="#f77c0c"/>
                <path id="Path_13" data-name="Path 13" d="M49.127,182.156h0c0-12.561,0-12.561-12.561-12.561h0c12.561,0,12.561,0,12.561-12.562h0c0,12.562,0,12.562,12.562,12.562h0C49.127,169.6,49.127,169.6,49.127,182.156Z" fill="#f77c0c"/>
              </g>
              <g id="Group_7" data-name="Group 7">
                <path id="Path_14" data-name="Path 14" d="M137.432,331.041h0c0-17.36,0-17.36-17.36-17.36h0c17.36,0,17.36,0,17.36-17.36h0c0,17.36,0,17.36,17.36,17.36h0C137.432,313.681,137.432,313.681,137.432,331.041Z" fill="#f77c0c"/>
                <path id="Path_15" data-name="Path 15" d="M169.86,344.541h0c0-12.562,0-12.562-12.561-12.562h0c12.562,0,12.561,0,12.561-12.561h0c0,12.561,0,12.561,12.561,12.561h0C169.86,331.979,169.86,331.979,169.86,344.541Z" fill="#f77c0c"/>
              </g>
            </g>
            <g id="Group_9" data-name="Group 9">
              <path id="Path_16" data-name="Path 16" d="M320.315,427.232c-2.573,0-2.578,4,0,4S322.893,427.232,320.315,427.232Z" fill="#ffaf3b"/>
              <path id="Path_17" data-name="Path 17" d="M63.505,396.375c-2.574,0-2.578,4,0,4S66.083,396.375,63.505,396.375Z" fill="#ffaf3b"/>
              <path id="Path_18" data-name="Path 18" d="M301.4,238.108c-2.574,0-2.578,4,0,4S303.981,238.108,301.4,238.108Z" fill="#ffaf3b"/>
              <path id="Path_19" data-name="Path 19" d="M64.5,56.947c-2.574,0-2.578,4,0,4S67.078,56.947,64.5,56.947Z" fill="#ffaf3b"/>
              <path id="Path_20" data-name="Path 20" d="M478.582,43.011c-2.574,0-2.578,4,0,4S481.16,43.011,478.582,43.011Z" fill="#ffaf3b"/>
              <path id="Path_21" data-name="Path 21" d="M696.573,160.467c-2.574,0-2.578,4,0,4S699.151,160.467,696.573,160.467Z" fill="#ffaf3b"/>
              <path id="Path_22" data-name="Path 22" d="M530.343,306.79c-2.574,0-2.579,4,0,4S532.921,306.79,530.343,306.79Z" fill="#ffaf3b"/>
              <path id="Path_23" data-name="Path 23" d="M721.457,440.172c-2.573,0-2.578,4,0,4S724.035,440.172,721.457,440.172Z" fill="#ffaf3b"/>
            </g>
          </g>
        </g>
      </g>
      <g id="OBJECTS">
        <g id="Group_117" data-name="Group 117">
          <g id="Group_116" data-name="Group 116">
            <g id="Group_24" data-name="Group 24">
              <g id="Group_16" data-name="Group 16">
                <g id="Group_13" data-name="Group 13">
                  <path id="Path_24" data-name="Path 24" d="M676.391,429.961c29.622-19.351,25.876-53.437,25.876-53.437H634.689s-3.746,34.086,25.876,53.437a2.659,2.659,0,0,1,0,4.463c-29.622,19.351-25.876,53.438-25.876,53.438h67.578s3.746-34.087-25.876-53.438A2.659,2.659,0,0,1,676.391,429.961Z" fill="#ccd1e4"/>
                  <path id="Path_25" data-name="Path 25" d="M676.391,434.424a2.659,2.659,0,0,1,0-4.463c29.622-19.351,25.876-53.437,25.876-53.437H656.375a91.382,91.382,0,0,1,11.7,22.916c4.145,11.51,6.789,23.824,5.349,35.972s-7.4,24.139-17.591,30.9a31.712,31.712,0,0,1-19.983,5.051,59.373,59.373,0,0,0-1.163,16.5h67.578S706.013,453.775,676.391,434.424Z" fill="#b4bbd3"/>
                </g>
                <g id="Group_15" data-name="Group 15">
                  <path id="Path_26" data-name="Path 26" d="M673.4,439.738a9.565,9.565,0,0,1,0-15.091,53.508,53.508,0,0,0,12.465-12.63,32.525,32.525,0,0,1-7.959,2.209c-4.7.587-9.449-.309-14.177-.135A31,31,0,0,0,654.18,416a53.747,53.747,0,0,0,9.372,8.644,9.562,9.562,0,0,1,0,15.092c-20.3,14.7-23.3,37.712-23.556,48.123H696.96C696.707,477.44,693.7,454.439,673.4,439.738Z" fill="#cf690c"/>
                  <g id="Group_14" data-name="Group 14">
                    <path id="Path_27" data-name="Path 27" d="M673.4,439.738c-.208-.151-.4-.322-.594-.491-2.137,10.785-7.854,21.017-16.973,27.064a31.546,31.546,0,0,1-13.433,4.911A71.484,71.484,0,0,0,640,487.862H696.96C696.707,477.44,693.7,454.439,673.4,439.738Z" fill="#f77c0c"/>
                    <path id="Path_28" data-name="Path 28" d="M685.868,412.017a32.525,32.525,0,0,1-7.959,2.209,34.014,34.014,0,0,1-5.583.156,75.6,75.6,0,0,1,1.355,10.054A53.522,53.522,0,0,0,685.868,412.017Z" fill="#e5685e"/>
                  </g>
                </g>
              </g>
              <g id="Group_23" data-name="Group 23">
                <g id="Group_19" data-name="Group 19">
                  <g id="Group_17" data-name="Group 17">
                    <path id="Rectangle_12" data-name="Rectangle 12" d="M1.821,0H77.526a1.821,1.821,0,0,1,1.821,1.821V8.715a0,0,0,0,1,0,0H0a0,0,0,0,1,0,0V1.821A1.821,1.821,0,0,1,1.821,0Z" transform="translate(628.804 487.862)" fill="#2f3a8f"/>
                    <path id="Path_29" data-name="Path 29" d="M708.152,496.576v-6.893a1.821,1.821,0,0,0-1.821-1.821H671.952a10.807,10.807,0,0,1,.438,2.566,11.475,11.475,0,0,1-1.556,6.148Z" fill="#222d6d"/>
                  </g>
                  <g id="Group_18" data-name="Group 18">
                    <path id="Path_30" data-name="Path 30" d="M711.6,500H625.36a1.711,1.711,0,0,1-1.711-1.712h0a1.712,1.712,0,0,1,1.711-1.712H711.6a1.713,1.713,0,0,1,1.712,1.712h0A1.712,1.712,0,0,1,711.6,500Z" fill="#ffaf3b"/>
                    <path id="Path_31" data-name="Path 31" d="M711.6,500a1.712,1.712,0,0,0,0-3.424H670.834a14.582,14.582,0,0,1-2.7,3.424Z" fill="#e59328"/>
                  </g>
                </g>
                <g id="Group_22" data-name="Group 22">
                  <g id="Group_20" data-name="Group 20">
                    <rect id="Rectangle_13" data-name="Rectangle 13" width="79.347" height="8.715" rx="1.821" transform="translate(628.804 367.809)" fill="#2f3a8f"/>
                    <path id="Path_32" data-name="Path 32" d="M706.331,376.524a1.821,1.821,0,0,0,1.821-1.821V369.63a1.821,1.821,0,0,0-1.821-1.821H672.387l0,.037A12.31,12.31,0,0,1,669,376.524Z" fill="#222d6d"/>
                  </g>
                  <g id="Group_21" data-name="Group 21">
                    <path id="Path_33" data-name="Path 33" d="M711.6,367.809H625.36a1.711,1.711,0,0,1-1.711-1.712h0a1.712,1.712,0,0,1,1.711-1.712H711.6a1.713,1.713,0,0,1,1.712,1.712h0A1.712,1.712,0,0,1,711.6,367.809Z" fill="#ffaf3b"/>
                    <path id="Path_34" data-name="Path 34" d="M713.308,366.1a1.713,1.713,0,0,0-1.712-1.712H671.65a11.079,11.079,0,0,1,.737,3.424H711.6A1.712,1.712,0,0,0,713.308,366.1Z" fill="#e59328"/>
                  </g>
                </g>
              </g>
            </g>
            <g id="Group_45" data-name="Group 45">
              <g id="Group_40" data-name="Group 40">
                <g id="Group_25" data-name="Group 25">
                  <path id="Path_35" data-name="Path 35" d="M601.758,473.948H491.66v-2.477h1.6V442.847h-1.6v-2.476h110.1a16.789,16.789,0,0,1,16.789,16.788h0A16.789,16.789,0,0,1,601.758,473.948Z" fill="#2f3a8f"/>
                  <path id="Path_36" data-name="Path 36" d="M601.758,440.37H567.469a24.378,24.378,0,0,1,3.34,2.841c3.652,3.762,5.973,9,5.5,14.219a19.03,19.03,0,0,1-6.177,11.818,30.441,30.441,0,0,1-6.732,4.7h38.36a16.789,16.789,0,0,0,0-33.578Z" fill="#222d6d"/>
                </g>
                <g id="Group_39" data-name="Group 39">
                  <g id="Group_37" data-name="Group 37">
                    <g id="Group_35" data-name="Group 35">
                      <g id="Group_26" data-name="Group 26">
                        <path id="Path_37" data-name="Path 37" d="M601.758,471.471h-108.5V442.847h108.5a14.312,14.312,0,0,1,14.312,14.312h0A14.312,14.312,0,0,1,601.758,471.471Z" fill="#ccd1e4"/>
                        <path id="Path_38" data-name="Path 38" d="M601.758,442.847H570.424c.126.124.262.237.385.364,3.652,3.762,5.973,9,5.5,14.219a19.03,19.03,0,0,1-6.177,11.818,26.729,26.729,0,0,1-2.705,2.223h34.333a14.312,14.312,0,0,0,0-28.624Z" fill="#b4bbd3"/>
                      </g>
                      <g id="Group_34" data-name="Group 34">
                        <g id="Group_32" data-name="Group 32">
                          <g id="Group_27" data-name="Group 27">
                            <rect id="Rectangle_14" data-name="Rectangle 14" width="108.5" height="0.599" transform="translate(493.258 446.88)" fill="#b4bbd3"/>
                          </g>
                          <g id="Group_28" data-name="Group 28">
                            <rect id="Rectangle_15" data-name="Rectangle 15" width="108.5" height="0.599" transform="translate(493.258 451.87)" fill="#b4bbd3"/>
                          </g>
                          <g id="Group_29" data-name="Group 29">
                            <rect id="Rectangle_16" data-name="Rectangle 16" width="108.5" height="0.599" transform="translate(493.258 456.859)" fill="#b4bbd3"/>
                          </g>
                          <g id="Group_30" data-name="Group 30">
                            <rect id="Rectangle_17" data-name="Rectangle 17" width="108.5" height="0.599" transform="translate(493.258 461.85)" fill="#b4bbd3"/>
                          </g>
                          <g id="Group_31" data-name="Group 31">
                            <rect id="Rectangle_18" data-name="Rectangle 18" width="108.5" height="0.599" transform="translate(493.258 466.839)" fill="#b4bbd3"/>
                          </g>
                        </g>
                        <g id="Group_33" data-name="Group 33">
                          <path id="Path_39" data-name="Path 39" d="M576.307,457.43l0,.029h25.454v-.6H576.34C576.33,457.049,576.324,457.24,576.307,457.43Z" fill="#99a2bc"/>
                          <path id="Path_40" data-name="Path 40" d="M574.992,462.449h26.766v-.6H575.237C575.158,462.05,575.078,462.251,574.992,462.449Z" fill="#99a2bc"/>
                          <path id="Path_41" data-name="Path 41" d="M571.847,467.438h29.911v-.6H572.337C572.177,467.041,572.015,467.242,571.847,467.438Z" fill="#99a2bc"/>
                          <path id="Path_42" data-name="Path 42" d="M575.951,452.469h25.807v-.6H575.8C575.853,452.069,575.905,452.268,575.951,452.469Z" fill="#99a2bc"/>
                          <path id="Path_43" data-name="Path 43" d="M574,447.479h27.762v-.6H573.646C573.766,447.077,573.882,447.277,574,447.479Z" fill="#99a2bc"/>
                        </g>
                      </g>
                    </g>
                    <g id="Group_36" data-name="Group 36">
                      <path id="Path_44" data-name="Path 44" d="M616.07,457.159a14.312,14.312,0,0,0-14.312-14.312v28.624A14.312,14.312,0,0,0,616.07,457.159Z" fill="#ffaf3b"/>
                      <path id="Path_45" data-name="Path 45" d="M616.07,457.159a14.29,14.29,0,0,0-6.836-12.187,20.674,20.674,0,0,1,1.157,10.876c-.618,3.576-2.317,7.127-5.325,9.157a8.881,8.881,0,0,1-3.308,1.34v5.126A14.312,14.312,0,0,0,616.07,457.159Z" fill="#e59328"/>
                    </g>
                  </g>
                  <g id="Group_38" data-name="Group 38">
                    <path id="Path_46" data-name="Path 46" d="M528.7,446.88H518.313a3.385,3.385,0,0,0-3.387,3.387v11.874a1.6,1.6,0,0,0,2.479,1.333l3.528-2.331a1.6,1.6,0,0,1,1.761,0l3.529,2.331a1.6,1.6,0,0,0,2.478-1.333V450.267a3.385,3.385,0,0,1,3.387-3.387Z" fill="#cf690c"/>
                    <path id="Path_47" data-name="Path 47" d="M528.7,446.88h-7.319a9.14,9.14,0,0,1,.92,1.668c1.216,2.96.58,6.755-1.938,8.729a8.456,8.456,0,0,1-4.812,1.61c-.209.01-.417,0-.626,0v3.252a1.6,1.6,0,0,0,2.479,1.333l3.528-2.331a1.6,1.6,0,0,1,1.761,0l3.529,2.331a1.6,1.6,0,0,0,2.478-1.333V450.267a3.385,3.385,0,0,1,3.387-3.387Z" fill="#f77c0c"/>
                  </g>
                </g>
              </g>
              <g id="Group_44" data-name="Group 44">
                <g id="Group_41" data-name="Group 41">
                  <rect id="Rectangle_19" data-name="Rectangle 19" width="154.303" height="26.052" rx="1.96" transform="translate(476.677 473.948)" fill="#f77c0c"/>
                  <path id="Path_48" data-name="Path 48" d="M629.021,473.948H570.382a18.528,18.528,0,0,1,1.912,1.949,19.75,19.75,0,0,1,3.771,17.908,19.142,19.142,0,0,1-3.148,6.2h56.1a1.961,1.961,0,0,0,1.96-1.96V475.908A1.96,1.96,0,0,0,629.021,473.948Z" fill="#cf690c"/>
                </g>
                <g id="Group_43" data-name="Group 43">
                  <rect id="Rectangle_20" data-name="Rectangle 20" width="4.769" height="26.052" transform="translate(613.15 473.948)" fill="#e59328"/>
                  <rect id="Rectangle_21" data-name="Rectangle 21" width="9.538" height="26.052" transform="translate(499.277 500) rotate(180)" fill="#ffaf3b"/>
                  <rect id="Rectangle_22" data-name="Rectangle 22" width="4.769" height="26.052" transform="translate(599.927 473.948)" fill="#e59328"/>
                  <g id="Group_42" data-name="Group 42">
                    <rect id="Rectangle_23" data-name="Rectangle 23" width="83.274" height="13.969" rx="0.98" transform="translate(507.965 479.99)" fill="#ffaf3b"/>
                    <path id="Path_49" data-name="Path 49" d="M576.015,493.958h14.244a.98.98,0,0,0,.98-.98V480.97a.98.98,0,0,0-.98-.98H574.9a19.776,19.776,0,0,1,1.163,13.815C576.05,493.857,576.03,493.907,576.015,493.958Z" fill="#e59328"/>
                  </g>
                </g>
              </g>
            </g>
            <g id="Group_75" data-name="Group 75">
              <g id="Group_54" data-name="Group 54">
                <g id="Group_48" data-name="Group 48">
                  <g id="Group_46" data-name="Group 46">
                    <path id="Path_50" data-name="Path 50" d="M390.02,468.969H359.98l8.389-188.623H381.63Z" fill="#ccd1e4"/>
                    <path id="Path_51" data-name="Path 51" d="M381.63,280.345H368.37l-.761,17.1c18.967,51.581,16.467,106.092-6.981,156.967l-.648,14.56h30.04Z" fill="#b4bbd3"/>
                  </g>
                  <g id="Group_47" data-name="Group 47">
                    <path id="Path_52" data-name="Path 52" d="M383.483,262.492H366.517l2.512-22.861a6.007,6.007,0,0,1,5.971-5.35h0a6.007,6.007,0,0,1,5.971,5.35Z" fill="#ccd1e4"/>
                    <path id="Path_53" data-name="Path 53" d="M380.971,239.631a6.007,6.007,0,0,0-5.971-5.35h0a5.978,5.978,0,0,0-3.207.935,16.5,16.5,0,0,1,3.722,8.175,20.265,20.265,0,0,1-4.7,15.529,24.579,24.579,0,0,1-3.7,3.572h16.361Z" fill="#b4bbd3"/>
                  </g>
                </g>
                <g id="Group_53" data-name="Group 53">
                  <g id="Group_49" data-name="Group 49">
                    <path id="Path_54" data-name="Path 54" d="M436.863,500H313.137l2.718-6.115a5.593,5.593,0,0,1,5.111-3.321H429.034a5.593,5.593,0,0,1,5.111,3.321Z" fill="#ccd1e4"/>
                    <path id="Path_55" data-name="Path 55" d="M436.863,500l-2.718-6.115a5.593,5.593,0,0,0-5.111-3.321H382.161a28.141,28.141,0,0,1-1.369,4.191A24.53,24.53,0,0,1,377.735,500Z" fill="#b4bbd3"/>
                  </g>
                  <g id="Group_52" data-name="Group 52">
                    <g id="Group_50" data-name="Group 50">
                      <path id="Path_56" data-name="Path 56" d="M421.27,490.564H328.73l4.485-13.855a11.186,11.186,0,0,1,10.642-7.74h62.286a11.186,11.186,0,0,1,10.642,7.74Z" fill="#2f3a8f"/>
                      <path id="Path_57" data-name="Path 57" d="M421.27,490.564l-4.485-13.855a11.186,11.186,0,0,0-10.642-7.74H378.892a28.8,28.8,0,0,1,2.467,5.115,28.421,28.421,0,0,1,.8,16.48Z" fill="#222d6d"/>
                    </g>
                    <g id="Group_51" data-name="Group 51">
                      <path id="Path_58" data-name="Path 58" d="M331.657,481.522h86.685l-1.136-3.51H332.794Z" fill="#f77c0c"/>
                      <path id="Path_59" data-name="Path 59" d="M417.206,478.011H382.43a28.337,28.337,0,0,1,.507,3.511h35.406Z" fill="#cf690c"/>
                    </g>
                  </g>
                </g>
              </g>
              <g id="Group_74" data-name="Group 74">
                <path id="Path_60" data-name="Path 60" d="M528.849,271.509a2.8,2.8,0,0,0-3.613-1.606c-53.591,20.62-67.2,16.191-87.808,9.482-13.316-4.336-29.888-9.732-61.423-9.732a2.7,2.7,0,0,1-2.009,0c-31.535,0-48.107,5.4-61.424,9.732-20.6,6.707-34.216,11.138-87.809-9.482a2.8,2.8,0,0,0-2.007,5.219c30.1,11.583,48.322,15.424,62.045,15.424,11.554,0,19.922-2.724,29.5-5.843,12.94-4.214,29.046-9.457,59.693-9.457a2.7,2.7,0,0,1,2.009,0c30.647,0,46.752,5.243,59.692,9.457,9.581,3.119,17.945,5.843,29.5,5.843,13.723,0,31.947-3.843,62.045-15.424A2.8,2.8,0,0,0,528.849,271.509Z" fill="#f77c0c"/>
                <g id="Group_73" data-name="Group 73">
                  <g id="Group_57" data-name="Group 57">
                    <g id="Group_55" data-name="Group 55">
                      <circle id="Ellipse_2" data-name="Ellipse 2" cx="17.289" cy="17.289" r="17.289" transform="translate(351.997 264.162) rotate(-25.188)" fill="#2f3a8f"/>
                      <path id="Path_61" data-name="Path 61" d="M375,255.16a17.247,17.247,0,0,0-5.308.839,14.27,14.27,0,0,1,5.875,6.493,14.552,14.552,0,0,1-2.854,15.572,19.068,19.068,0,0,1-9.749,4.976c-.473.1-.953.161-1.43.24A17.286,17.286,0,1,0,375,255.16Z" fill="#222d6d"/>
                    </g>
                    <g id="Group_56" data-name="Group 56">
                      <circle id="Ellipse_3" data-name="Ellipse 3" cx="8.114" cy="8.114" r="8.114" transform="translate(364.399 268.059) rotate(-22.5)" fill="#f77c0c"/>
                      <path id="Path_62" data-name="Path 62" d="M376.242,264.461a14.615,14.615,0,0,1-3.529,13.6,14.838,14.838,0,0,1-1.653,1.438,8.027,8.027,0,0,0,3.94,1.062,8.1,8.1,0,0,0,1.242-16.1Z" fill="#cf690c"/>
                    </g>
                  </g>
                  <g id="Group_72" data-name="Group 72">
                    <g id="Group_64" data-name="Group 64">
                      <path id="Path_63" data-name="Path 63" d="M529.543,368.6l-37.165-85.12,0,0,0-.006-.007-.007a.744.744,0,0,0-.621-.409l-.008,0h0a.673.673,0,0,0-.34.1.629.629,0,0,0-.069.046.682.682,0,0,0-.215.25c0,.006-.01.008-.013.014l0,.013,0,.006-38.537,85.11a.7.7,0,1,0,1.273.576l37.21-82.179V368.88a.7.7,0,0,0,1.4,0V287.1l35.829,82.059a.7.7,0,0,0,1.281-.559Z" fill="#333f48"/>
                      <g id="Group_60" data-name="Group 60">
                        <g id="Group_58" data-name="Group 58">
                          <circle id="Ellipse_4" data-name="Ellipse 4" cx="12.062" cy="12.062" r="12.062" transform="translate(473.987 283.708) rotate(-45)" fill="#2f3a8f"/>
                          <path id="Path_64" data-name="Path 64" d="M491.046,271.646a12.022,12.022,0,0,0-3.7.585,9.952,9.952,0,0,1,4.1,4.53,10.151,10.151,0,0,1-1.991,10.864,13.3,13.3,0,0,1-6.8,3.471c-.33.071-.665.113-1,.168a12.06,12.06,0,1,0,9.395-19.618Z" fill="#222d6d"/>
                        </g>
                        <g id="Group_59" data-name="Group 59">
                          <path id="Path_65" data-name="Path 65" d="M496.707,283.708a5.661,5.661,0,1,1-5.661-5.661A5.662,5.662,0,0,1,496.707,283.708Z" fill="#f77c0c"/>
                          <path id="Path_66" data-name="Path 66" d="M491.913,278.135a9.814,9.814,0,0,1-3.616,10.493,5.6,5.6,0,0,0,2.749.741,5.65,5.65,0,0,0,.867-11.234Z" fill="#cf690c"/>
                        </g>
                      </g>
                      <g id="Group_63" data-name="Group 63">
                        <g id="Group_61" data-name="Group 61">
                          <path id="Path_67" data-name="Path 67" d="M491.046,421.074h0a37.356,37.356,0,0,1-36.553-29.651l-4.041-19.169a2.8,2.8,0,0,1,2.737-3.373H528.9a2.8,2.8,0,0,1,2.736,3.373l-4.04,19.169A37.356,37.356,0,0,1,491.046,421.074Z" fill="#cf690c"/>
                          <path id="Path_68" data-name="Path 68" d="M528.9,368.881H496.345a25.844,25.844,0,0,1,1.957,18.045c-2.78,10.472-12.2,18.255-22.553,21.463a49.406,49.406,0,0,1-10.835,2.006,37.3,37.3,0,0,0,26.132,10.679h0A37.356,37.356,0,0,0,527.6,391.423l4.04-19.169A2.8,2.8,0,0,0,528.9,368.881Z" fill="#f77c0c"/>
                        </g>
                        <g id="Group_62" data-name="Group 62">
                          <path id="Path_69" data-name="Path 69" d="M453.387,386.175H528.7l1.582-7.507H451.8Z" fill="#222d6d"/>
                          <path id="Path_70" data-name="Path 70" d="M498.456,386.175h30.249l1.582-7.507H499.06A25.306,25.306,0,0,1,498.456,386.175Z" fill="#2f3a8f"/>
                        </g>
                      </g>
                    </g>
                    <g id="Group_71" data-name="Group 71">
                      <path id="Path_71" data-name="Path 71" d="M297.452,368.6l-37.165-85.12,0,0,0-.006-.007-.007a.744.744,0,0,0-.621-.409l-.008,0h0a.691.691,0,0,0-.334.1c-.018.011-.03.02-.047.032a.7.7,0,0,0-.245.271c0,.005-.009.007-.011.012l-.005.013,0,.006-38.537,85.11a.7.7,0,1,0,1.273.576l37.209-82.179V368.88a.7.7,0,0,0,1.4,0V287.1l35.829,82.059a.7.7,0,0,0,.64.419.706.706,0,0,0,.28-.058A.7.7,0,0,0,297.452,368.6Z" fill="#ccd1e4"/>
                      <g id="Group_67" data-name="Group 67">
                        <g id="Group_65" data-name="Group 65">
                          <circle id="Ellipse_5" data-name="Ellipse 5" cx="12.062" cy="12.062" r="12.062" transform="translate(244.454 292.694) rotate(-76.787)" fill="#2f3a8f"/>
                          <path id="Path_72" data-name="Path 72" d="M258.954,271.646a12.022,12.022,0,0,0-3.7.585,9.96,9.96,0,0,1,4.1,4.53,10.153,10.153,0,0,1-1.992,10.864,13.3,13.3,0,0,1-6.8,3.471c-.33.071-.665.113-1,.168a12.06,12.06,0,1,0,9.4-19.618Z" fill="#222d6d"/>
                        </g>
                        <g id="Group_66" data-name="Group 66">
                          <path id="Path_73" data-name="Path 73" d="M264.615,283.708a5.661,5.661,0,1,1-5.661-5.661A5.662,5.662,0,0,1,264.615,283.708Z" fill="#f77c0c"/>
                          <path id="Path_74" data-name="Path 74" d="M259.821,278.135a9.815,9.815,0,0,1-3.616,10.493,5.6,5.6,0,0,0,2.749.741,5.65,5.65,0,0,0,.867-11.234Z" fill="#cf690c"/>
                        </g>
                      </g>
                      <g id="Group_70" data-name="Group 70">
                        <g id="Group_68" data-name="Group 68">
                          <path id="Path_75" data-name="Path 75" d="M258.954,421.074h0A37.356,37.356,0,0,1,222.4,391.423l-4.04-19.169a2.8,2.8,0,0,1,2.736-3.373h75.714a2.8,2.8,0,0,1,2.737,3.373l-4.041,19.169A37.356,37.356,0,0,1,258.954,421.074Z" fill="#cf690c"/>
                          <path id="Path_76" data-name="Path 76" d="M296.811,368.881H264.254a25.843,25.843,0,0,1,1.956,18.045c-2.78,10.472-12.2,18.255-22.553,21.463a49.408,49.408,0,0,1-10.834,2.006,37.3,37.3,0,0,0,26.131,10.679h0a37.356,37.356,0,0,0,36.553-29.651l4.04-19.169A2.8,2.8,0,0,0,296.811,368.881Z" fill="#f77c0c"/>
                        </g>
                        <g id="Group_69" data-name="Group 69">
                          <path id="Path_77" data-name="Path 77" d="M221.3,386.175h75.318l1.582-7.507H219.713Z" fill="#222d6d"/>
                          <path id="Path_78" data-name="Path 78" d="M266.364,386.175h30.249l1.582-7.507H266.968A25.3,25.3,0,0,1,266.364,386.175Z" fill="#2f3a8f"/>
                        </g>
                      </g>
                    </g>
                  </g>
                </g>
              </g>
            </g>
            <g id="Group_115" data-name="Group 115">
              <g id="Group_91" data-name="Group 91">
                <g id="Group_76" data-name="Group 76">
                  <path id="Path_79" data-name="Path 79" d="M250.339,500H105.527v-3.622h2.745V468.4h-2.745v-3.623H250.339a17.609,17.609,0,0,1,17.609,17.61h0A17.609,17.609,0,0,1,250.339,500Z" fill="#2f3a8f"/>
                  <path id="Path_80" data-name="Path 80" d="M250.339,464.781h-61.7a22.728,22.728,0,0,1,6.424,6.985c4.088,7.031,3.862,16.484-.965,23.029a22.986,22.986,0,0,1-5.461,5.2h61.7a17.609,17.609,0,0,0,17.609-17.609h0A17.609,17.609,0,0,0,250.339,464.781Z" fill="#222d6d"/>
                </g>
                <g id="Group_90" data-name="Group 90">
                  <g id="Group_88" data-name="Group 88">
                    <g id="Group_86" data-name="Group 86">
                      <g id="Group_77" data-name="Group 77">
                        <path id="Path_81" data-name="Path 81" d="M250.339,496.378H108.272V468.4H250.339a13.987,13.987,0,0,1,13.987,13.987h0A13.987,13.987,0,0,1,250.339,496.378Z" fill="#ccd1e4"/>
                        <path id="Path_82" data-name="Path 82" d="M192.793,496.378h57.546a13.987,13.987,0,0,0,0-27.974h-57.7a21.778,21.778,0,0,1,2.429,3.362c4.088,7.031,3.862,16.484-.965,23.029C193.693,495.351,193.25,495.872,192.793,496.378Z" fill="#b4bbd3"/>
                      </g>
                      <g id="Group_85" data-name="Group 85">
                        <g id="Group_83" data-name="Group 83">
                          <g id="Group_78" data-name="Group 78">
                            <rect id="Rectangle_24" data-name="Rectangle 24" width="142.067" height="0.596" transform="translate(108.272 472.166)" fill="#b4bbd3"/>
                          </g>
                          <g id="Group_79" data-name="Group 79">
                            <rect id="Rectangle_25" data-name="Rectangle 25" width="142.067" height="0.596" transform="translate(108.272 477.13)" fill="#b4bbd3"/>
                          </g>
                          <g id="Group_80" data-name="Group 80">
                            <rect id="Rectangle_26" data-name="Rectangle 26" width="142.067" height="0.596" transform="translate(108.272 482.093)" fill="#b4bbd3"/>
                          </g>
                          <g id="Group_81" data-name="Group 81">
                            <rect id="Rectangle_27" data-name="Rectangle 27" width="142.067" height="0.596" transform="translate(108.272 487.057)" fill="#b4bbd3"/>
                          </g>
                          <g id="Group_82" data-name="Group 82">
                            <rect id="Rectangle_28" data-name="Rectangle 28" width="142.067" height="0.596" transform="translate(108.272 492.02)" fill="#b4bbd3"/>
                          </g>
                        </g>
                        <g id="Group_84" data-name="Group 84">
                          <path id="Path_83" data-name="Path 83" d="M250.339,472.166H195.28c.109.2.216.4.318.6h54.741Z" fill="#99a2bc"/>
                          <path id="Path_84" data-name="Path 84" d="M250.339,477.129h-53.1c.051.2.1.4.144.6h52.953Z" fill="#99a2bc"/>
                          <path id="Path_85" data-name="Path 85" d="M250.339,482.689v-.6H197.932c0,.2,0,.4,0,.6Z" fill="#99a2bc"/>
                          <path id="Path_86" data-name="Path 86" d="M250.339,487.653v-.6H197.485c-.041.2-.081.4-.128.6Z" fill="#99a2bc"/>
                          <path id="Path_87" data-name="Path 87" d="M250.339,492.616v-.6h-54.55c-.1.2-.209.4-.317.6Z" fill="#99a2bc"/>
                        </g>
                      </g>
                    </g>
                    <g id="Group_87" data-name="Group 87">
                      <path id="Path_88" data-name="Path 88" d="M264.326,482.391A13.987,13.987,0,0,0,250.339,468.4v27.974l3.078-.351A13.985,13.985,0,0,0,264.326,482.391Z" fill="#f77c0c"/>
                      <path id="Path_89" data-name="Path 89" d="M264.326,482.391a13.981,13.981,0,0,0-11.467-13.748,20.458,20.458,0,0,1,4.284,8.967,13.471,13.471,0,0,1-.389,7.386,8.1,8.1,0,0,1-5.2,5.013,5.813,5.813,0,0,1-1.219.178v6.191l3.078-.351A13.985,13.985,0,0,0,264.326,482.391Z" fill="#cf690c"/>
                    </g>
                  </g>
                  <g id="Group_89" data-name="Group 89">
                    <path id="Path_90" data-name="Path 90" d="M131.617,477.129h-8.7a2.836,2.836,0,0,0-2.837,2.837v9.943a1.338,1.338,0,0,0,2.076,1.117l2.955-1.952a1.336,1.336,0,0,1,1.475,0l2.954,1.952a1.338,1.338,0,0,0,2.076-1.117v-9.943a2.835,2.835,0,0,1,2.836-2.837Z" fill="#ffaf3b"/>
                    <path id="Path_91" data-name="Path 91" d="M131.617,477.129h-6.129a7.69,7.69,0,0,1,.77,1.4,6.387,6.387,0,0,1-1.623,7.309,7.069,7.069,0,0,1-4.029,1.348c-.175.009-.35,0-.525,0v2.723a1.338,1.338,0,0,0,2.076,1.117l2.955-1.952a1.336,1.336,0,0,1,1.475,0l2.954,1.952a1.338,1.338,0,0,0,2.076-1.117v-9.943a2.835,2.835,0,0,1,2.836-2.837Z" fill="#e59328"/>
                  </g>
                </g>
              </g>
              <g id="Group_114" data-name="Group 114">
                <g id="Group_96" data-name="Group 96">
                  <g id="Group_92" data-name="Group 92">
                    <path id="Rectangle_29" data-name="Rectangle 29" d="M2.014,0H91.006a2.015,2.015,0,0,1,2.015,2.015V6.372a0,0,0,0,1,0,0H0a0,0,0,0,1,0,0V2.014A2.014,2.014,0,0,1,2.014,0Z" transform="translate(132.795 458.409)" fill="#ffaf3b"/>
                    <path id="Path_92" data-name="Path 92" d="M223.8,458.409H191.746a14.573,14.573,0,0,1-.718,1.754,16.373,16.373,0,0,1-3.515,4.618h38.3v-4.357A2.015,2.015,0,0,0,223.8,458.409Z" fill="#e59328"/>
                  </g>
                  <g id="Group_95" data-name="Group 95">
                    <g id="Group_93" data-name="Group 93">
                      <path id="Path_93" data-name="Path 93" d="M218.421,458.409h-78.23l2.287-12.957a5.037,5.037,0,0,1,4.959-4.161h63.737a5.037,5.037,0,0,1,4.959,4.161Z" fill="#f77c0c"/>
                      <path id="Path_94" data-name="Path 94" d="M211.174,441.291H188.83a20.694,20.694,0,0,1,3.347,7.469,18,18,0,0,1-.431,9.649h26.675l-2.288-12.957A5.036,5.036,0,0,0,211.174,441.291Z" fill="#cf690c"/>
                    </g>
                    <g id="Group_94" data-name="Group 94">
                      <path id="Path_95" data-name="Path 95" d="M141.656,450.108h75.3l-.708-4.01H142.364Z" fill="#ffaf3b"/>
                      <path id="Path_96" data-name="Path 96" d="M191.373,446.1a19.869,19.869,0,0,1,.8,2.662c.1.445.177.9.245,1.348h24.533l-.708-4.01Z" fill="#e59328"/>
                    </g>
                  </g>
                </g>
                <g id="Group_113" data-name="Group 113">
                  <g id="Group_107" data-name="Group 107">
                    <g id="Group_98" data-name="Group 98">
                      <rect id="Rectangle_30" data-name="Rectangle 30" width="50.43" height="8.049" rx="1.236" transform="matrix(0.799, -0.601, 0.601, 0.799, 153.56, 435.42)" fill="#e59328"/>
                      <g id="Group_97" data-name="Group 97">
                        <rect id="Rectangle_31" data-name="Rectangle 31" width="41.665" height="8.044" transform="translate(152.223 426.357) rotate(-36.97)" fill="#2f3a8f"/>
                        <path id="Path_97" data-name="Path 97" d="M185.511,401.3l-24.435,18.394a49.642,49.642,0,0,1-5.776,10.751l1.761,2.34,33.288-25.058Z" fill="#222d6d"/>
                      </g>
                    </g>
                    <g id="Group_101" data-name="Group 101">
                      <g id="Group_99" data-name="Group 99">
                        <rect id="Rectangle_32" data-name="Rectangle 32" width="50.43" height="8.049" rx="1.236" transform="matrix(0.799, -0.601, 0.601, 0.799, 111.18, 379.12)" fill="#ffaf3b"/>
                        <path id="Path_98" data-name="Path 98" d="M145.1,363.664l10.228-7.7a1.235,1.235,0,0,0,.245-1.73l-3.355-4.457a1.236,1.236,0,0,0-1.73-.244l-12.719,9.574A49.573,49.573,0,0,1,145.1,363.664Z" fill="#e59328"/>
                      </g>
                      <g id="Group_100" data-name="Group 100">
                        <rect id="Rectangle_33" data-name="Rectangle 33" width="41.665" height="8.044" transform="matrix(0.799, -0.601, 0.601, 0.799, 119.522, 382.915)" fill="#2f3a8f"/>
                        <path id="Path_99" data-name="Path 99" d="M152.81,357.857l-7.714,5.807a48.478,48.478,0,0,1,6.105,5.473l6.447-4.853Z" fill="#222d6d"/>
                      </g>
                    </g>
                    <g id="Group_106" data-name="Group 106">
                      <g id="Group_102" data-name="Group 102">
                        <path id="Path_345" data-name="Path 345" d="M1.236,0H49.194A1.236,1.236,0,0,1,50.43,1.236V45.094a1.236,1.236,0,0,1-1.236,1.236H1.236A1.236,1.236,0,0,1,0,45.094V1.236A1.236,1.236,0,0,1,1.236,0Z" transform="matrix(0.799, -0.601, 0.601, 0.799, 120.859, 391.978)" fill="#ffaf3b"/>
                        <path id="Path_100" data-name="Path 100" d="M161.076,419.693l26.949-20.286a1.234,1.234,0,0,0,.244-1.73l-26.376-35.041a1.236,1.236,0,0,0-1.731-.244l-8.961,6.745c.838.889,1.653,1.8,2.419,2.752a49.1,49.1,0,0,1,10.467,35.461A48.012,48.012,0,0,1,161.076,419.693Z" fill="#e59328"/>
                      </g>
                      <g id="Group_105" data-name="Group 105">
                        <g id="Group_103" data-name="Group 103">
                          <rect id="Rectangle_35" data-name="Rectangle 35" width="50.43" height="5.467" transform="matrix(0.799, -0.601, 0.601, 0.799, 124.373, 396.646)" fill="#fe7e6d"/>
                          <path id="Path_101" data-name="Path 101" d="M154.95,373.629a47.732,47.732,0,0,1,2.967,4.609l10.034-7.553-3.287-4.368Z" fill="#e5685e"/>
                        </g>
                        <g id="Group_104" data-name="Group 104">
                          <rect id="Rectangle_36" data-name="Rectangle 36" width="50.43" height="5.467" transform="matrix(0.799, -0.601, 0.601, 0.799, 141.92, 419.957)" fill="#fe7e6d"/>
                          <path id="Path_102" data-name="Path 102" d="M185.5,394l-3.287-4.368-17.885,13.463c-.019,1.422-.092,2.843-.239,4.259-.108,1.037-.264,2.068-.441,3.1Z" fill="#e5685e"/>
                        </g>
                      </g>
                    </g>
                  </g>
                  <g id="Group_112" data-name="Group 112">
                    <g id="Group_110" data-name="Group 110">
                      <g id="Group_108" data-name="Group 108">
                        <path id="Path_103" data-name="Path 103" d="M134.959,417.982S96.852,457.3,67.531,479.374,22.47,502.425,18.918,497.707s1.744-19.572,31.066-41.643,77.649-47.815,77.649-47.815Z" fill="#f77c0c"/>
                        <path id="Path_104" data-name="Path 104" d="M119.212,412.844a22.527,22.527,0,0,1-2.428,13.921c-3.033,5.925-8.06,10.833-13.364,15.282-20.912,17.543-47.564,29.44-75.694,34.011-9.648,11.05-11.144,18.545-8.808,21.649,3.552,4.718,19.291,3.739,48.613-18.333s67.428-61.392,67.428-61.392l-7.326-9.733S124.443,409.948,119.212,412.844Z" fill="#cf690c"/>
                      </g>
                      <g id="Group_109" data-name="Group 109">
                        <path id="Path_105" data-name="Path 105" d="M117.625,435.222c2.276-2.207,4.391-4.277,6.306-6.166l-9.991-13.272c-2.345,1.317-4.92,2.777-7.67,4.354Z" fill="#ffaf3b"/>
                        <path id="Path_106" data-name="Path 106" d="M116.784,426.765a33.074,33.074,0,0,1-2.479,4.047l3.32,4.41c2.276-2.207,4.391-4.277,6.306-6.166l-5.288-7.024A25.561,25.561,0,0,1,116.784,426.765Z" fill="#e59328"/>
                      </g>
                    </g>
                    <g id="Group_111" data-name="Group 111">
                      <path id="Rectangle_37" data-name="Rectangle 37" d="M1.007,0H4.373a0,0,0,0,1,0,0V19.739a0,0,0,0,1,0,0H1.007A1.007,1.007,0,0,1,0,18.732V1.007A1.007,1.007,0,0,1,1.007,0Z" transform="matrix(0.799, -0.601, 0.601, 0.799, 125.361, 405.23)" fill="#2f3a8f"/>
                      <path id="Path_107" data-name="Path 107" d="M135.119,410.922a8.566,8.566,0,0,1-1.056,1.039,8.867,8.867,0,0,1-2.561,1.428l5.124,6.807a1.008,1.008,0,0,0,1.41.2l2.69-2.025Z" fill="#222d6d"/>
                    </g>
                  </g>
                </g>
              </g>
            </g>
          </g>
        </g>
      </g>
    </g>
  </g>
</svg>
