<svg xmlns="http://www.w3.org/2000/svg" xmlns:xlink="http://www.w3.org/1999/xlink" width="1219.699" height="400" viewBox="0 0 1219.699 400">
  <defs>
    <clipPath id="clip-_04">
      <rect width="1219.7" height="400"/>
    </clipPath>
  </defs>
  <g id="_04" data-name="04" clip-path="url(#clip-_04)">
    <g id="_1_to_3" data-name="1 to 3" transform="translate(-1893.506 437.999) rotate(-90)">
      <g id="_01" data-name="01" transform="translate(437.999 1893.506) rotate(90)">
        <g id="Group_1" data-name="Group 1" transform="translate(0 199.716)">
          <path id="Path_1" data-name="Path 1" d="M200,200.284a198.745,198.745,0,0,1-77.915-15.746,199.323,199.323,0,0,1-63.605-42.932,199.322,199.322,0,0,1-42.841-63.66A198.77,198.77,0,0,1,0,0L5.718.008A193,193,0,0,0,62.525,137.566a193,193,0,0,0,137.474,57A193.792,193.792,0,0,0,388.677,46.806,15.428,15.428,0,0,0,373.73,27.647V21.93a21.146,21.146,0,0,1,20.5,26.24,198.563,198.563,0,0,1-26.191,60.615A200.562,200.562,0,0,1,324.3,156.975,199.225,199.225,0,0,1,266.966,188.8,199.494,199.494,0,0,1,200,200.284Z" transform="translate(0 0)" fill="#cbcbcb"/>
        </g>
        <circle id="Ellipse_1" data-name="Ellipse 1" cx="171.829" cy="171.829" r="171.829" transform="translate(25 28)" fill="#fff"/>
        <g id="Group_7" data-name="Group 7" transform="translate(342.007 172.276)">
          <g id="Group_4" data-name="Group 4" transform="translate(0 19.526)">
            <path id="Path_6" data-name="Path 6" d="M95.272,16.336H8.168A8.168,8.168,0,1,1,8.168,0h87.1a8.168,8.168,0,1,1,0,16.336Z" transform="translate(0 0)" fill="#f77c0c"/>
          </g>
          <g id="Group_6" data-name="Group 6" transform="translate(62.733 0)">
            <g id="Group_5" data-name="Group 5" transform="translate(0)">
              <path id="Path_7" data-name="Path 7" d="M0,55.389,27.71,27.694,0,0H23.516L51.21,27.694,23.516,55.389Z" fill="#f77c0c"/>
            </g>
          </g>
        </g>
        <g id="Group_15" data-name="Group 15" transform="translate(328.121 215.906)">
          <g id="Group_12" data-name="Group 12" transform="translate(8.169 5.74)">
            <rect id="Rectangle_5" data-name="Rectangle 5" width="37.44" height="5.718" fill="#cbcbcb"/>
          </g>
          <g id="Group_14" data-name="Group 14" transform="translate(0 0)">
            <g id="Group_13" data-name="Group 13" transform="translate(0)">
              <path id="Path_10" data-name="Path 10" d="M8.6,0a8.6,8.6,0,1,0,8.6,8.6A8.6,8.6,0,0,0,8.6,0Z" fill="#cbcbcb"/>
            </g>
          </g>
        </g>
        <g id="Group_16" data-name="Group 16" transform="translate(0 0)">
          <path id="Path_11" data-name="Path 11" d="M5.718,199.722,0,199.715a200.03,200.03,0,0,1,394.244-47.542,21.134,21.134,0,0,1-20.516,26.181v-5.718a15.416,15.416,0,0,0,14.963-19.1A194.283,194.283,0,0,0,5.718,199.722Z" transform="translate(0)" fill="#cbcbcb"/>
        </g>
        <g id="Group_20" data-name="Group 20" transform="translate(328.121 166.895)">
          <g id="Group_17" data-name="Group 17" transform="translate(8.169 5.74)">
            <rect id="Rectangle_6" data-name="Rectangle 6" width="37.438" height="5.718" fill="#cbcbcb"/>
          </g>
          <g id="Group_19" data-name="Group 19" transform="translate(0 0)">
            <g id="Group_18" data-name="Group 18" transform="translate(0 0)">
              <path id="Path_12" data-name="Path 12" d="M8.6,17.2a8.6,8.6,0,1,1,8.6-8.6A8.6,8.6,0,0,1,8.6,17.2Z" fill="#cbcbcb"/>
            </g>
          </g>
        </g>
      </g>
      <g id="_02" data-name="02" transform="translate(437.999 2303.672) rotate(90)">
        <g id="Group_3" data-name="Group 3" transform="translate(0 221.645)">
          <path id="Path_3" data-name="Path 3" d="M195.7,178.355a199.391,199.391,0,0,1-68.5-12.04,199.24,199.24,0,0,1-58.29-33.279A200.6,200.6,0,0,1,0,19.785l5.595-1.179C24.4,107.857,104.349,172.637,195.7,172.637A193.792,193.792,0,0,0,384.38,24.876,15.427,15.427,0,0,0,369.433,5.718V0a21.146,21.146,0,0,1,20.5,26.241,198.581,198.581,0,0,1-26.191,60.614A200.56,200.56,0,0,1,320,135.046a199.218,199.218,0,0,1-57.335,31.82A199.489,199.489,0,0,1,195.7,178.355Z" transform="translate(0 0)" fill="#cbcbcb"/>
        </g>
        <path id="Path_4" data-name="Path 4" d="M160.211,0A171.862,171.862,0,0,0,3.325,101.643a37.478,37.478,0,0,0,9.465,43.7,35.409,35.409,0,0,1,12.345,26.9A35.4,35.4,0,0,1,13.07,198.907a37.688,37.688,0,0,0-9.429,43.806A171.847,171.847,0,1,0,160.211,0Z" transform="translate(34.834 27.898)" fill="#fff"/>
        <g id="Group_11" data-name="Group 11" transform="translate(338.324 172.276)">
          <g id="Group_8" data-name="Group 8" transform="translate(0 19.526)">
            <path id="Path_8" data-name="Path 8" d="M95.271,16.336H8.168A8.168,8.168,0,1,1,8.168,0h87.1a8.168,8.168,0,1,1,0,16.336Z" transform="translate(0 0)" fill="#f77c0c"/>
          </g>
          <g id="Group_10" data-name="Group 10" transform="translate(62.733 0)">
            <g id="Group_9" data-name="Group 9">
              <path id="Path_9" data-name="Path 9" d="M0,55.389,27.71,27.694,0,0H23.515L51.21,27.694,23.515,55.389Z" fill="#f77c0c"/>
            </g>
          </g>
        </g>
        <g id="Group_25" data-name="Group 25" transform="translate(324.439 215.906)">
          <g id="Group_22" data-name="Group 22" transform="translate(8.169 5.74)">
            <rect id="Rectangle_7" data-name="Rectangle 7" width="36.825" height="5.718" fill="#cbcbcb"/>
          </g>
          <g id="Group_24" data-name="Group 24" transform="translate(0 0)">
            <g id="Group_23" data-name="Group 23" transform="translate(0 0)">
              <path id="Path_14" data-name="Path 14" d="M8.6,0a8.6,8.6,0,1,0,8.6,8.6A8.6,8.6,0,0,0,8.6,0Z" fill="#cbcbcb"/>
            </g>
          </g>
        </g>
        <g id="Group_29" data-name="Group 29" transform="translate(0 0)">
          <g id="Group_26" data-name="Group 26" transform="translate(0 0)">
            <path id="Path_15" data-name="Path 15" d="M369.433,178.354H332.608v-5.718h36.825a15.427,15.427,0,0,0,14.947-19.158A193.791,193.791,0,0,0,195.7,5.718C104.349,5.718,24.4,70.5,5.595,159.748L0,158.57A200.055,200.055,0,0,1,363.741,91.5a198.575,198.575,0,0,1,26.191,60.615,21.145,21.145,0,0,1-20.5,26.24Z" fill="#cbcbcb"/>
          </g>
          <g id="Group_28" data-name="Group 28" transform="translate(324.438 166.897)">
            <g id="Group_27" data-name="Group 27" transform="translate(0 0)">
              <path id="Path_16" data-name="Path 16" d="M8.6,0a8.6,8.6,0,1,0,8.6,8.6A8.6,8.6,0,0,0,8.6,0Z" transform="translate(0 0)" fill="#cbcbcb"/>
            </g>
          </g>
        </g>
      </g>
      <g id="_03" data-name="03" transform="translate(437.999 2717.506) rotate(90)">
        <g id="Group_2" data-name="Group 2" transform="translate(0 200)">
          <path id="Path_2" data-name="Path 2" d="M195.7,200a199.4,199.4,0,0,1-68.5-12.04,199.255,199.255,0,0,1-58.29-33.279A200.6,200.6,0,0,1,0,41.43l5.594-1.179C24.4,129.5,104.347,194.282,195.7,194.282,302.83,194.282,389.984,107.127,389.984,0H395.7a198.751,198.751,0,0,1-15.718,77.85,199.34,199.34,0,0,1-42.86,63.571,199.33,199.33,0,0,1-63.572,42.86A198.751,198.751,0,0,1,195.7,200Z" transform="translate(0 0)" fill="#cbcbcb"/>
        </g>
        <path id="Path_5" data-name="Path 5" d="M160.211,0A171.861,171.861,0,0,0,3.325,101.643a37.477,37.477,0,0,0,9.465,43.7,35.409,35.409,0,0,1,12.344,26.9,35.4,35.4,0,0,1-12.065,26.661,37.687,37.687,0,0,0-9.428,43.806A171.846,171.846,0,1,0,160.211,0Z" transform="translate(36 28.341)" fill="#fff"/>
        <g id="Group_21" data-name="Group 21" transform="translate(0 0)">
          <path id="Path_13" data-name="Path 13" d="M395.7,200h-5.718C389.984,92.872,302.83,5.718,195.7,5.718,104.347,5.718,24.4,70.5,5.594,159.748L0,158.57A200.006,200.006,0,0,1,395.7,200Z" fill="#cbcbcb"/>
        </g>
      </g>
    </g>
  </g>
</svg>
