<svg xmlns="http://www.w3.org/2000/svg" xmlns:xlink="http://www.w3.org/1999/xlink" width="450" height="1372.16" viewBox="0 0 450 1372.16">
  <defs>
    <clipPath id="clip-_05">
      <rect width="450" height="1372.16"/>
    </clipPath>
  </defs>
  <g id="_05" data-name="05" clip-path="url(#clip-_05)">
    <g id="_1_to_4" data-name="1 to 4" transform="translate(-38 -1893.506)">
      <g id="_01" data-name="01" transform="translate(487.999 1893.506) rotate(90)">
        <g id="Group_1" data-name="Group 1" transform="translate(0 224.68)">
          <path id="Path_1" data-name="Path 1" d="M225,225.319A223.588,223.588,0,0,1,137.345,207.6a224.239,224.239,0,0,1-71.556-48.3,224.238,224.238,0,0,1-48.2-71.618A223.616,223.616,0,0,1,0,0L6.432.008A217.126,217.126,0,0,0,70.341,154.762,217.123,217.123,0,0,0,225,218.887,218.016,218.016,0,0,0,437.262,52.657,17.356,17.356,0,0,0,420.446,31.1V24.671a23.789,23.789,0,0,1,23.062,29.52,223.383,223.383,0,0,1-29.465,68.191,225.633,225.633,0,0,1-49.2,54.215,224.129,224.129,0,0,1-64.5,35.8A224.431,224.431,0,0,1,225,225.319Z" transform="translate(0 0)" fill="#cbcbcb"/>
        </g>
        <circle id="Ellipse_1" data-name="Ellipse 1" cx="193.308" cy="193.308" r="193.308" transform="translate(32 31.383)" fill="#fff"/>
        <g id="Group_7" data-name="Group 7" transform="translate(384.757 193.81)">
          <g id="Group_4" data-name="Group 4" transform="translate(0 21.967)">
            <path id="Path_6" data-name="Path 6" d="M107.181,18.378H9.189A9.189,9.189,0,1,1,9.189,0h97.992a9.189,9.189,0,1,1,0,18.378Z" transform="translate(0 0)" fill="#f77c0c"/>
          </g>
          <g id="Group_6" data-name="Group 6" transform="translate(70.575 0)">
            <g id="Group_5" data-name="Group 5" transform="translate(0)">
              <path id="Path_7" data-name="Path 7" d="M0,62.312,31.174,31.156,0,0H26.455L57.611,31.156,26.455,62.312Z" fill="#f77c0c"/>
            </g>
          </g>
        </g>
        <g id="Group_15" data-name="Group 15" transform="translate(369.136 242.894)">
          <g id="Group_12" data-name="Group 12" transform="translate(9.19 6.457)">
            <rect id="Rectangle_5" data-name="Rectangle 5" width="42.12" height="6.432" fill="#cbcbcb"/>
          </g>
          <g id="Group_14" data-name="Group 14" transform="translate(0)">
            <g id="Group_13" data-name="Group 13">
              <path id="Path_10" data-name="Path 10" d="M9.674,0a9.673,9.673,0,1,0,9.674,9.673A9.674,9.674,0,0,0,9.674,0Z" fill="#cbcbcb"/>
            </g>
          </g>
        </g>
        <g id="Group_16" data-name="Group 16" transform="translate(0 0)">
          <path id="Path_11" data-name="Path 11" d="M6.432,224.688,0,224.679a225.034,225.034,0,0,1,443.524-53.485,23.776,23.776,0,0,1-23.08,29.454v-6.432a17.343,17.343,0,0,0,16.833-21.488A218.568,218.568,0,0,0,6.432,224.688Z" fill="#cbcbcb"/>
        </g>
        <g id="Group_20" data-name="Group 20" transform="translate(369.136 187.757)">
          <g id="Group_17" data-name="Group 17" transform="translate(9.19 6.457)">
            <rect id="Rectangle_6" data-name="Rectangle 6" width="42.118" height="6.432" fill="#cbcbcb"/>
          </g>
          <g id="Group_19" data-name="Group 19" transform="translate(0 0)">
            <g id="Group_18" data-name="Group 18">
              <path id="Path_12" data-name="Path 12" d="M9.674,19.347a9.674,9.674,0,1,1,9.674-9.674A9.675,9.675,0,0,1,9.674,19.347Z" fill="#cbcbcb"/>
            </g>
          </g>
        </g>
      </g>
      <g id="_02" data-name="02" transform="translate(487.999 2354.943) rotate(90)">
        <g id="Group_3" data-name="Group 3" transform="translate(0 249.351)">
          <path id="Path_3" data-name="Path 3" d="M220.166,200.649A224.316,224.316,0,0,1,143.1,187.1a224.145,224.145,0,0,1-65.576-37.439A225.68,225.68,0,0,1,0,22.258l6.294-1.326c21.152,100.408,111.1,173.285,213.872,173.285A218.015,218.015,0,0,0,432.427,27.986,17.356,17.356,0,0,0,415.612,6.432V0a23.789,23.789,0,0,1,23.062,29.521,223.4,223.4,0,0,1-29.465,68.191A225.63,225.63,0,0,1,360,151.927a224.12,224.12,0,0,1-64.5,35.8A224.426,224.426,0,0,1,220.166,200.649Z" fill="#cbcbcb"/>
        </g>
        <path id="Path_4" data-name="Path 4" d="M180.237,0A193.345,193.345,0,0,0,3.74,114.348a42.163,42.163,0,0,0,10.648,49.161,39.835,39.835,0,0,1,13.888,30.268A39.827,39.827,0,0,1,14.7,223.77,42.4,42.4,0,0,0,4.1,273.052a193.337,193.337,0,0,0,369.4-84.108C371.177,84.2,285.54,0,180.237,0Z" transform="translate(39.563 31.385)" fill="#fff"/>
        <g id="Group_11" data-name="Group 11" transform="translate(380.615 193.81)">
          <g id="Group_8" data-name="Group 8" transform="translate(0 21.967)">
            <path id="Path_8" data-name="Path 8" d="M107.18,18.378H9.189A9.189,9.189,0,1,1,9.189,0H107.18a9.189,9.189,0,1,1,0,18.378Z" transform="translate(0 0)" fill="#f77c0c"/>
          </g>
          <g id="Group_10" data-name="Group 10" transform="translate(70.575 0)">
            <g id="Group_9" data-name="Group 9">
              <path id="Path_9" data-name="Path 9" d="M0,62.312,31.174,31.156,0,0H26.455L57.611,31.156,26.455,62.312Z" fill="#f77c0c"/>
            </g>
          </g>
        </g>
        <g id="Group_25" data-name="Group 25" transform="translate(364.993 242.894)">
          <g id="Group_22" data-name="Group 22" transform="translate(9.19 6.457)">
            <rect id="Rectangle_7" data-name="Rectangle 7" width="41.428" height="6.432" fill="#cbcbcb"/>
          </g>
          <g id="Group_24" data-name="Group 24" transform="translate(0 0)">
            <g id="Group_23" data-name="Group 23">
              <path id="Path_14" data-name="Path 14" d="M9.674,0a9.673,9.673,0,1,0,9.674,9.673A9.675,9.675,0,0,0,9.674,0Z" fill="#cbcbcb"/>
            </g>
          </g>
        </g>
        <g id="Group_29" data-name="Group 29" transform="translate(0 0)">
          <g id="Group_26" data-name="Group 26">
            <path id="Path_15" data-name="Path 15" d="M415.612,200.648H374.184v-6.432h41.428a17.356,17.356,0,0,0,16.815-21.553A218.015,218.015,0,0,0,220.166,6.432c-102.774,0-192.72,72.876-213.872,173.284L0,178.391a225.062,225.062,0,0,1,409.209-75.454,223.4,223.4,0,0,1,29.465,68.191,23.788,23.788,0,0,1-23.062,29.52Z" fill="#cbcbcb"/>
          </g>
          <g id="Group_28" data-name="Group 28" transform="translate(364.993 187.759)">
            <g id="Group_27" data-name="Group 27" transform="translate(0 0)">
              <path id="Path_16" data-name="Path 16" d="M9.674,0a9.674,9.674,0,1,0,9.674,9.674A9.675,9.675,0,0,0,9.674,0Z" fill="#cbcbcb"/>
            </g>
          </g>
        </g>
      </g>
      <g id="_03" data-name="03" transform="translate(487.999 2820.506) rotate(90)">
        <g id="Group_2" data-name="Group 2" transform="translate(0 225)">
          <path id="Path_2" data-name="Path 2" d="M220.165,225A224.325,224.325,0,0,1,143.1,211.455a224.162,224.162,0,0,1-65.576-37.439A225.672,225.672,0,0,1,0,46.609l6.294-1.326c21.152,100.408,111.1,173.285,213.872,173.285,120.518,0,218.566-98.049,218.566-218.567h6.433a223.6,223.6,0,0,1-17.683,87.581A224.258,224.258,0,0,1,379.264,159.1a224.247,224.247,0,0,1-71.519,48.218A223.6,223.6,0,0,1,220.165,225Z" fill="#cbcbcb"/>
        </g>
        <path id="Path_5" data-name="Path 5" d="M180.237,0A193.343,193.343,0,0,0,3.741,114.348a42.161,42.161,0,0,0,10.648,49.161,39.835,39.835,0,0,1,13.887,30.268A39.826,39.826,0,0,1,14.7,223.77,42.4,42.4,0,0,0,4.1,273.052a193.337,193.337,0,0,0,369.4-84.108C371.177,84.2,285.539,0,180.237,0Z" transform="translate(39.999 31.883)" fill="#fff"/>
        <g id="Group_21" data-name="Group 21">
          <path id="Path_13" data-name="Path 13" d="M445.164,225h-6.433c0-120.518-98.048-218.567-218.566-218.567C117.391,6.432,27.446,79.309,6.294,179.717L0,178.391A225.007,225.007,0,0,1,445.164,225Z" fill="#cbcbcb"/>
        </g>
      </g>
    </g>
  </g>
</svg>
