<svg xmlns="http://www.w3.org/2000/svg" width="200" height="200" viewBox="0 0 200 200">
  <g id="noun-close-1590668" transform="translate(-8 -8)">
    <g id="Group_348" data-name="Group 348" transform="translate(8 8)">
      <path id="Path_189" data-name="Path 189" d="M108,8A100,100,0,1,0,208,108,99.972,99.972,0,0,0,108,8Zm39.167,123.167a11.317,11.317,0,0,1,0,16,11.5,11.5,0,0,1-8,3.25,11.351,11.351,0,0,1-8-3.25L108,124.083,84.833,147.25a11.5,11.5,0,0,1-8,3.25,11.25,11.25,0,0,1-8-19.25L92,108.083,68.833,84.917a11.314,11.314,0,1,1,16-16L108,92.083l23.167-23.25a11.314,11.314,0,0,1,16,16L124,108Z" transform="translate(-8 -8)" fill="#050709"/>
    </g>
  </g>
</svg>
