<svg xmlns="http://www.w3.org/2000/svg" width="200" height="199.983" viewBox="0 0 200 199.983">
  <g id="Group_416" data-name="Group 416" transform="translate(-228 -2448.506)">
    <path id="noun-add-user-3501347" d="M77.4,50.281A6.251,6.251,0,0,0,71.273,56.6V69.1H58.762a6.256,6.256,0,1,0,0,12.512H71.273v12.5a6.251,6.251,0,0,0,12.5,0v-12.5H96.224a6.256,6.256,0,1,0,0-12.512H83.773V56.6A6.251,6.251,0,0,0,77.4,50.281Z" transform="translate(325.497 2541.868)" fill="#ed8b00" fill-rule="evenodd"/>
    <path id="noun-add-user-3501347-2" data-name="noun-add-user-3501347" d="M103.037.044a99.992,99.992,0,1,0,22.827,196.53,6.261,6.261,0,0,0-3.235-12.1,87.5,87.5,0,1,1,61.864-61.864,6.261,6.261,0,0,0,12.1,3.235A99.945,99.945,0,0,0,103.037.044ZM99.973,31.22A31.256,31.256,0,1,0,131.26,62.494,31.355,31.355,0,0,0,99.973,31.22Zm0,12.5A18.756,18.756,0,1,1,81.248,62.494,18.705,18.705,0,0,1,99.973,43.72Zm0,56.286a49.9,49.9,0,0,0-49.963,49.962,6.251,6.251,0,0,0,6.226,6.275h87.523a6.251,6.251,0,0,0,6.225-6.275,49.7,49.7,0,0,0-1.709-13.012,49.9,49.9,0,0,0-48.3-36.95Zm0,12.451a37.639,37.639,0,0,1,36.218,27.734c.309,1.143.264,2.376.464,3.552H63.341c.2-1.176.154-2.409.464-3.552A38.115,38.115,0,0,1,73.4,123.54a36.921,36.921,0,0,1,16.98-9.79A37.319,37.319,0,0,1,99.973,112.457Z" transform="translate(228 2448.505)" fill="#333f48" fill-rule="evenodd"/>
  </g>
</svg>
