<svg xmlns="http://www.w3.org/2000/svg" width="171.953" height="190.5" viewBox="0 0 171.953 190.5">
  <g id="noun-edit-4052610" transform="translate(0.25 0.25)">
    <path id="Path_315" data-name="Path 315" d="M8.139,0h91.57a8.229,8.229,0,0,1,5.764,2.389L139.7,36.611a8.256,8.256,0,0,1,2.389,5.751v5.751L131.9,60.687V43.4H101.733a3.07,3.07,0,0,1-3.048-3.066V10.182h-88.5V179.818H131.9v-55.51l10.182-12.575v70.127A8.157,8.157,0,0,1,133.944,190H8.139A8.157,8.157,0,0,1,0,181.861V8.139A8.157,8.157,0,0,1,8.139,0Z" transform="translate(0 0)" fill="#fff" stroke="#fff" stroke-width="0.5"/>
    <path id="Path_316" data-name="Path 316" d="M57.97,92.05h55.259V101.1H57.97Z" transform="translate(-31.596 -50.171)" fill="#fff"/>
    <path id="Path_317" data-name="Path 317" d="M57.97,148.21H147.3v9.048H57.97Z" transform="translate(-31.596 -80.781)" fill="#fff"/>
    <path id="Path_318" data-name="Path 318" d="M57.97,204.39h74.418v9.048H57.97Z" transform="translate(-31.596 -111.401)" fill="#fff"/>
    <path id="Path_319" data-name="Path 319" d="M57.97,260.55H110.9V269.6H57.97Z" transform="translate(-31.596 -142.01)" fill="#fff"/>
    <path id="Path_320" data-name="Path 320" d="M57.97,316.71h44.663v9.048H57.97Z" transform="translate(-31.596 -172.62)" fill="#fff"/>
    <path id="Path_321" data-name="Path 321" d="M170.11,216.423l4.217-26.779,4.095-5.05,21.092,17.079-4.09,5.055Zm11.738-36.06,46.884-57.9,21.092,17.084L202.94,197.442Zm50.3-62.125,9.9-12.216a5.779,5.779,0,0,1,8.112-.855l12.129,9.823a5.783,5.783,0,0,1,.851,8.112l-9.891,12.216Z" transform="translate(-92.717 -56.623)" fill="#fff" fill-rule="evenodd"/>
  </g>
</svg>
