<svg xmlns="http://www.w3.org/2000/svg" width="200.729" height="200.63" viewBox="0 0 200.729 200.63">
  <g id="noun-faq-4540894" transform="translate(-2.672 -2.7)">
    <path id="Path_213" data-name="Path 213" d="M103,3A100.154,100.154,0,0,0,24,164.513l-5.831,26.367a7.143,7.143,0,0,0,9.347,8.28l26.143-9.179A100,100,0,1,0,103,3Zm0,185.709a85.437,85.437,0,0,1-44.837-12.653A7.058,7.058,0,0,0,54.423,175a7.183,7.183,0,0,0-2.371.4l-17.159,6.027,3.795-17.173a7.165,7.165,0,0,0-1.479-6.11A85.831,85.831,0,1,1,103,188.709ZM127.607,87.491a24.292,24.292,0,0,1-7.785,18.108l-1.757,1.562c-2.246,1.995-8.217,7.3-8.3,9.424a7.274,7.274,0,0,1-7.143,7h-.14a7.021,7.021,0,0,1-7-7c0-8.475,7.268-14.927,13.1-20.1L110.239,95a10,10,0,0,0,3.083-7.505,10.7,10.7,0,0,0-20.954-3.069,7.137,7.137,0,1,1-13.671-4.1,24.982,24.982,0,0,1,48.911,7.171Zm-18.471,46.072a6.154,6.154,0,0,1,.571,2.713,6.828,6.828,0,0,1-7,7.143,7.222,7.222,0,0,1-5.134-1.995,7.646,7.646,0,0,1-2.148-5.148,7.276,7.276,0,0,1,2.149-4.994,6.947,6.947,0,0,1,11.565,2.281Z" transform="translate(0)" fill="#fff" stroke="#fff" stroke-width="0.6"/>
  </g>
</svg>
