<svg xmlns="http://www.w3.org/2000/svg" width="161.233" height="200" viewBox="0 0 161.233 200">
  <g id="Group" transform="translate(-13.4 -4.6)">
    <path id="Compound_Path" data-name="Compound Path" d="M13.4,111.85v14.1h95.374v-14.1A41.85,41.85,0,0,0,66.924,70H55.25A41.85,41.85,0,0,0,13.4,111.85Zm13.216,0A28.634,28.634,0,0,1,55.25,83.216H67.145A28.634,28.634,0,0,1,95.779,111.85v.881H26.616Z" transform="translate(0 78.653)" fill="#fff"/>
    <path id="Compound_Path-2" data-name="Compound Path" d="M81.993,72.3a30.4,30.4,0,1,0-30.176,30.4A30.4,30.4,0,0,0,81.993,72.3Zm-47.357,0A17.181,17.181,0,1,1,51.817,89.477,17.181,17.181,0,0,1,34.637,72.3Z" transform="translate(9.38 44.859)" fill="#fff"/>
    <path id="Compound_Path-3" data-name="Compound Path" d="M140.839,4.6H41.5V75.966H79.826v32.159l38.546-32.159h22.467ZM127.623,62.75h-14.1L93.042,79.93V62.75H54.716V17.816h72.907Z" transform="translate(33.794 0)" fill="#fff"/>
    <path id="Path" d="M66.1,24.6a4.405,4.405,0,1,0,3.2,1.367A4.405,4.405,0,0,0,66.1,24.6Z" transform="translate(58.091 24.053)" fill="#fff"/>
    <path id="Path-2" data-name="Path" d="M65.066,20.836a5.286,5.286,0,0,1,2.863-.881c1.982,0,1.982.881,1.982,1.542a7.489,7.489,0,0,1-2.423,4.185,11.233,11.233,0,0,0-3.084,8.59v2.863h7.048V34.052a6.167,6.167,0,0,1,1.762-4.626,12.775,12.775,0,0,0,3.965-8.37,7.929,7.929,0,0,0-8.811-7.93,12.335,12.335,0,0,0-7.048,1.982L60,15.99l2.423,6.388Z" transform="translate(56.043 10.196)" fill="#fff"/>
  </g>
</svg>
