<svg width="33" height="32" viewBox="0 0 33 32" fill="none" xmlns="http://www.w3.org/2000/svg">
<path fill-rule="evenodd" clip-rule="evenodd" d="M0 2.66667C0 1.95942 0.248341 1.28115 0.690391 0.781049C1.13244 0.280952 1.73199 0 2.35714 0H30.6429C31.268 0 31.8676 0.280952 32.3096 0.781049C32.7517 1.28115 33 1.95942 33 2.66667C33 3.37391 32.7517 4.05219 32.3096 4.55228C31.8676 5.05238 31.268 5.33333 30.6429 5.33333H2.35714C1.73199 5.33333 1.13244 5.05238 0.690391 4.55228C0.248341 4.05219 0 3.37391 0 2.66667ZM0 16C0 15.2928 0.248341 14.6145 0.690391 14.1144C1.13244 13.6143 1.73199 13.3333 2.35714 13.3333H30.6429C31.268 13.3333 31.8676 13.6143 32.3096 14.1144C32.7517 14.6145 33 15.2928 33 16C33 16.7072 32.7517 17.3855 32.3096 17.8856C31.8676 18.3857 31.268 18.6667 30.6429 18.6667H2.35714C1.73199 18.6667 1.13244 18.3857 0.690391 17.8856C0.248341 17.3855 0 16.7072 0 16ZM0 29.3333C0 28.6261 0.248341 27.9478 0.690391 27.4477C1.13244 26.9476 1.73199 26.6667 2.35714 26.6667H30.6429C31.268 26.6667 31.8676 26.9476 32.3096 27.4477C32.7517 27.9478 33 28.6261 33 29.3333C33 30.0406 32.7517 30.7189 32.3096 31.219C31.8676 31.719 31.268 32 30.6429 32H2.35714C1.73199 32 1.13244 31.719 0.690391 31.219C0.248341 30.7189 0 30.0406 0 29.3333Z" fill="#333F48"/>
</svg>
