<svg id="noun-home-1028744" xmlns="http://www.w3.org/2000/svg" width="188.889" height="200" viewBox="0 0 188.889 200">
  <path id="Path_199" data-name="Path 199" d="M110.444,966.362a9.5,9.5,0,0,0-5.122,1.736l-86.111,66.667a8.468,8.468,0,0,0-3.212,6.6v116.667a8.66,8.66,0,0,0,8.333,8.333H82.667A8.661,8.661,0,0,0,91,1158.029v-63.89h38.889v63.89a8.66,8.66,0,0,0,8.333,8.333h58.333a8.66,8.66,0,0,0,8.333-8.333V1041.362a8.488,8.488,0,0,0-3.212-6.6L115.566,968.1A8.068,8.068,0,0,0,110.444,966.362Zm0,18.837,77.778,60.156v104.34H146.556v-63.888a8.661,8.661,0,0,0-8.333-8.333H82.667a8.661,8.661,0,0,0-8.333,8.333v63.888H32.667v-104.34Z" transform="translate(-16 -966.362)" fill="#fff"/>
</svg>
