<svg xmlns="http://www.w3.org/2000/svg" width="163.857" height="191" viewBox="0 0 163.857 191">
  <g id="noun-login-2854224" transform="translate(0.5 0.5)">
    <path id="Path_214" data-name="Path 214" d="M10.786,151.286a6.786,6.786,0,0,1,6.786,6.786v20.357h95V15.571h-95V35.929A6.786,6.786,0,0,1,4,35.929V8.786A6.786,6.786,0,0,1,10.786,2H119.357a6.786,6.786,0,0,1,6.786,6.786V185.214A6.786,6.786,0,0,1,119.357,192H10.786A6.786,6.786,0,0,1,4,185.214V158.071A6.786,6.786,0,0,1,10.786,151.286Z" transform="translate(36.714 -2)" fill="#fff" stroke="#fff" stroke-width="1"/>
    <circle id="Ellipse_15" data-name="Ellipse 15" cx="6.786" cy="6.786" r="6.786" transform="translate(122.143 88.214)" fill="#fff" stroke="#fff" stroke-width="1"/>
    <path id="Path_215" data-name="Path 215" d="M22.789,44.041H76.532L58.21,21.173A6.786,6.786,0,1,1,68.8,12.691L95.939,46.619a2.986,2.986,0,0,1,.543,1.018,2.782,2.782,0,0,1,.475.746,6.786,6.786,0,0,1,0,4.886,2.782,2.782,0,0,1-.475.746,4.071,4.071,0,0,1-.543,1.086L68.8,89.03A6.782,6.782,0,0,1,58.21,80.548L76.532,57.612H22.789a6.786,6.786,0,1,1,0-13.571Z" transform="translate(-16.003 44.174)" fill="#fff" stroke="#fff" stroke-width="1"/>
  </g>
</svg>
