<svg xmlns="http://www.w3.org/2000/svg" width="172.447" height="201" viewBox="0 0 172.447 201">
  <g id="noun-login-2854224" transform="translate(0.519 0.5)">
    <path id="Path_214" data-name="Path 214" d="M11.143,159.143a7.143,7.143,0,0,1,7.143,7.143v21.429h100V16.286h-100V37.714A7.143,7.143,0,0,1,4,37.714V9.143A7.143,7.143,0,0,1,11.143,2H125.429a7.143,7.143,0,0,1,7.143,7.143V194.857A7.143,7.143,0,0,1,125.429,202H11.143A7.143,7.143,0,0,1,4,194.857V166.286A7.143,7.143,0,0,1,11.143,159.143Z" transform="translate(38.857 -2)" fill="#fff" stroke="#fff" stroke-width="1"/>
    <ellipse id="Ellipse_15" data-name="Ellipse 15" cx="7.143" cy="7.143" rx="7.143" ry="7.143" transform="translate(128.571 92.857)" fill="#fff" stroke="#fff" stroke-width="1"/>
    <path id="Path_215" data-name="Path 215" d="M94.554,45.833H37.982L57.268,21.762a7.143,7.143,0,1,0-11.143-8.929L17.553,48.548a3.143,3.143,0,0,0-.571,1.071,2.93,2.93,0,0,0-.5.786,7.143,7.143,0,0,0,0,5.143,2.929,2.929,0,0,0,.5.786,4.286,4.286,0,0,0,.571,1.143L46.125,93.191a7.139,7.139,0,0,0,11.143-8.929L37.982,60.119H94.554a7.143,7.143,0,1,0,0-14.286Z" transform="translate(-16.003 47.024)" fill="#fff" stroke="#fff" stroke-width="1"/>
  </g>
</svg>
