<svg xmlns="http://www.w3.org/2000/svg" width="152.482" height="200.5" viewBox="0 0 152.482 200.5">
  <g id="noun-form-4716744" transform="translate(-1.623 -0.014)">
    <path id="Path_331" data-name="Path 331" d="M16.138,22.513a5.882,5.882,0,0,0-5.9,5.87V49.177a5.882,5.882,0,0,0,5.9,5.9H36.931a5.883,5.883,0,0,0,5.859-5.9V28.383a5.883,5.883,0,0,0-5.859-5.871ZM60.516,32.9a5.882,5.882,0,0,0,0,11.764h48.055a5.882,5.882,0,1,0,0-11.764ZM22,34.288h9.03v9.03H22ZM16.138,63.721a5.883,5.883,0,0,0-5.9,5.859v20.8a5.882,5.882,0,0,0,5.9,5.859H36.931a5.883,5.883,0,0,0,5.859-5.859V69.58a5.882,5.882,0,0,0-5.859-5.859ZM60.516,74.094a5.888,5.888,0,0,0,0,11.775h48.055a5.888,5.888,0,1,0,0-11.775ZM22,75.484h9.03v9.041H22Zm-5.859,29.444a5.882,5.882,0,0,0-5.9,5.859v20.805a5.882,5.882,0,0,0,5.9,5.859H36.931a5.883,5.883,0,0,0,5.859-5.859v-20.8a5.883,5.883,0,0,0-5.859-5.859ZM60.516,115.3a5.888,5.888,0,0,0,0,11.775h48.055a5.888,5.888,0,1,0,0-11.775ZM22,116.646h9.03v9.041H22Z" transform="translate(15.525 41.318)" fill="#f77c0c" stroke="#f77c0c" stroke-width="0.5"/>
    <path id="Path_332" data-name="Path 332" d="M7.778.267a5.883,5.883,0,0,0-5.9,5.9V194.394a5.883,5.883,0,0,0,5.9,5.87h140.2a5.883,5.883,0,0,0,5.859-5.87V54.365a5.883,5.883,0,0,0-.3-2.344q-.038-.116-.08-.23t-.092-.218q-.05-.11-.1-.218-.106-.223-.23-.437s0-.008,0-.012q-.061-.1-.126-.207t-.138-.185l-.047-.069q-.045-.064-.092-.127l-.081-.1-.08-.091q-.154-.185-.322-.356L104.392,2a5.882,5.882,0,0,0-1.045-.793q-.185-.122-.379-.23a5.883,5.883,0,0,0-1.114-.46q-.245-.063-.494-.1a5.882,5.882,0,0,0-.758-.1q-.189-.03-.379-.047Zm5.859,11.764H94.318V53.94a5.883,5.883,0,0,0,5.9,5.859h41.851v128.69H13.637Zm92.445,8.306,13.809,13.809,13.855,13.889H106.082Z" transform="translate(0)" fill="#333f48" stroke="#333f48" stroke-width="0.5"/>
  </g>
</svg>
