<svg xmlns="http://www.w3.org/2000/svg" width="181.455" height="201.589" viewBox="0 0 181.455 201.589">
  <g id="noun-qualification-4247749" transform="translate(-15.15 -12.883)">
    <path id="Path_325" data-name="Path 325" d="M116.6,130.287c-5.356,0-15-2.678-25.175-5.356l-1.071-.268c-13.926-4.017-29.727-8.57-42.047-8.57H42.949c-1.875,0-2.143-.268-8.034-7.767C29.826,101.9,22.6,92.525,16.971,86.633A4.5,4.5,0,0,1,15.9,83.151a4.026,4.026,0,0,1,2.678-2.41c6.7-1.339,13.659-4.553,20.89-7.5,14.194-6.16,29.192-12.855,44.993-8.3a251.812,251.812,0,0,1,43.654,17.676c6.7,3.482,8.034,10.98,6.16,16.337-2.41,6.428-9.374,9.641-17.408,7.767-17.944-4.017-26.514-6.7-28.121-7.231a3.558,3.558,0,0,1,2.41-6.7c1.339.536,9.641,3.214,27.317,7.231,4.553,1.071,7.767-.268,9.106-3.214a6.057,6.057,0,0,0-2.946-7.767c-.268,0-20.89-10.713-42.315-17.14-13.123-3.749-26.782,2.143-39.9,7.767A137.522,137.522,0,0,1,26.077,86.1c5.088,5.624,10.445,12.855,14.462,17.944,1.339,1.875,3.214,3.749,3.749,5.089H47.77c13.391,0,29.46,4.553,43.922,8.838l1.071.536c9.374,2.678,18.747,5.356,23.3,5.356,16.069,0,22.5-3.214,64.008-22.764l3.214-1.607.268-.268c4.821-2.143,5.624-5.892,4.821-8.57-1.339-3.749-4.821-4.017-7.5-3.214l-39.1,13.926a3.558,3.558,0,0,1-2.41-6.7l39.369-13.926c.268,0,.268,0,.536-.268,7.5-1.339,13.659,1.607,15.8,8.034,2.143,5.624-.268,13.659-8.3,17.408l-3.214,1.875C142.041,126.805,134.274,130.287,116.6,130.287Z" transform="translate(0 83.435)" fill="#333f48" stroke="#333f48" stroke-width="1.5"/>
    <path id="Path_326" data-name="Path 326" d="M75.05,90.572a3.562,3.562,0,0,1-2.143-.8l-15.8-11.516H37.556a4.3,4.3,0,0,1-2.946-1.339,2.921,2.921,0,0,1-.536-3.214l8.3-24.1a3.643,3.643,0,0,1,6.963,2.143L42.912,71.29H58.446a3.561,3.561,0,0,1,2.143.8l12.587,9.374L79.6,61.916a3.643,3.643,0,1,1,6.963,2.143L78.8,88.43a3.6,3.6,0,0,1-2.41,2.41A2.414,2.414,0,0,0,75.05,90.572Z" transform="translate(30.032 55.928)" fill="#333f48" stroke="#333f48" stroke-width="1.5"/>
    <path id="Path_327" data-name="Path 327" d="M60.3,91.964H59.229a3.268,3.268,0,0,1-2.41-2.143L53.069,80.18a3.558,3.558,0,1,1,6.7-2.41l1.875,4.821,11.516-9.641A5.384,5.384,0,0,1,75.3,71.878l15-1.071L82.8,51.792c-.8-1.875.268-3.749,1.875-4.821,1.875-.8,3.749.268,4.821,1.875l9.641,23.568a3.469,3.469,0,0,1-3.214,4.821L77.172,78.306,62.71,90.625A2.564,2.564,0,0,1,60.3,91.964Z" transform="translate(61.922 55.339)" fill="#333f48" stroke="#333f48" stroke-width="1.5"/>
    <path id="Path_328" data-name="Path 328" d="M131.241,53.568l-8.3-9.374-1.071-12.587a4.064,4.064,0,0,0-2.678-3.214L106.87,24.912l-8.034-9.641A3.432,3.432,0,0,0,95.086,14.2L83.3,17.949,71.518,13.932A3.312,3.312,0,0,0,67.769,15l-8.3,9.641L46.611,27.858A3.775,3.775,0,0,0,43.933,30.8L42.326,43.123l-8.57,9.641a3.668,3.668,0,0,0-.536,4.017L38.577,68.3,36.434,80.618A3.445,3.445,0,0,0,38.041,84.1l10.713,6.7,4.821,11.516a3.48,3.48,0,0,0,3.214,2.143H69.375l10.445,7.231a3.56,3.56,0,0,0,1.875.8,2.431,2.431,0,0,0,1.875-.8l10.445-6.963,12.587.536a3.015,3.015,0,0,0,3.214-2.143L115.172,91.6l10.98-6.7a3.672,3.672,0,0,0,1.607-3.482L125.884,69.1l5.624-11.516A2.91,2.91,0,0,0,131.241,53.568ZM118.921,68.834l1.607,11.248-9.641,5.892a3.57,3.57,0,0,0-1.339,1.607l-4.821,10.445L93.211,97.49a3.561,3.561,0,0,0-2.143.8l-9.641,6.16-9.641-6.428c-.8-.536-1.071-.8-1.875-.8H58.4L54.646,86.777c-.268-.8-.8-1.071-1.339-1.607l-9.641-6.16L45.54,67.762a3.022,3.022,0,0,0-.268-2.143l-4.821-9.909,7.5-8.57a4.317,4.317,0,0,0,1.071-1.875l1.607-11.248,10.98-2.946A2.459,2.459,0,0,0,63.216,30l7.5-8.57,10.98,3.482a2.957,2.957,0,0,0,2.143,0L94.55,21.7l7.5,8.838a2.711,2.711,0,0,0,1.875,1.071l11.248,3.214,1.071,11.516a2.711,2.711,0,0,0,1.071,1.875l7.5,8.3-5.088,10.177A2.221,2.221,0,0,0,118.921,68.834Z" transform="translate(28.476 0)" fill="#333f48" stroke="#333f48" stroke-width="1.5"/>
    <path id="Path_329" data-name="Path 329" d="M89.556,39.929A23.109,23.109,0,0,0,78.04,25.467a22.866,22.866,0,0,0-18.211-2.143A23.109,23.109,0,0,0,45.367,34.84a22.866,22.866,0,0,0-2.143,18.211,24.507,24.507,0,0,0,23.3,17.676,20.508,20.508,0,0,0,6.7-1.071A24.109,24.109,0,0,0,89.556,39.929ZM70.809,62.961a16.893,16.893,0,0,1-20.89-11.784c-1.071-4.285-.8-9.106,1.607-12.855A16.078,16.078,0,0,1,61.7,30.287a13.6,13.6,0,0,1,4.553-.8A17.2,17.2,0,0,1,82.593,41.8,16.966,16.966,0,0,1,70.809,62.961Z" transform="translate(44.182 14.443)" fill="#f77c0c" stroke="#f77c0c" stroke-width="1.5"/>
  </g>
</svg>
